# xmcd CD database file
#
# Track frame offsets:
#	150
#	20053
#	33601
#	42759
#	56357
#	83285
#	88985
#	122770
#	140927
#	160808
#	177220
#	195525
#	202743
#	223280
#	243464
#	258282
#
# Disc length: 3776 seconds
#
# Revision: 0
# Processed by: cddbd v1.5.1PL0 Copyright (c) Steve Scherf et al.
# Submitted via: CDex 1.51
#
DISCID=df0ebe10
DTITLE=Sisyphus - Greetings from Burkittsville
DYEAR=1999
DGENRE=Salsa
TTITLE0=Slate at coffin rock
TTITLE1=on the trail
TTITLE2=very close now
TTITLE3=back at the rock
TTITLE4=not going to play with that either
TTITLE5=morning
TTITLE6=map missing
TTITLE7=voodoo shit
TTITLE8=evacuate
TTITLE9=leave him alone
TTITLE10=lets make movies
TTITLE11=missing
TTITLE12=how about east
TTITLE13=something out here
TTITLE14=apology
TTITLE15=home
EXTD=YEAR: 1999
EXTT0=
EXTT1=
EXTT2=
EXTT3=
EXTT4=
EXTT5=
EXTT6=
EXTT7=
EXTT8=
EXTT9=
EXTT10=
EXTT11=
EXTT12=
EXTT13=
EXTT14=
EXTT15=
PLAYORDER=
